<?xml version="1.0" encoding="UTF-8"?><svg id="industrif.ai" xmlns="http://www.w3.org/2000/svg" xmlns:xlink="http://www.w3.org/1999/xlink" viewBox="0 0 6656 2048"><defs><style>.cls-1{fill:url(#linear-gradient);}.cls-2{fill:#f0811e;}.cls-3{fill:#282c87;}.cls-4{fill:url(#linear-gradient-2);}</style><linearGradient id="linear-gradient" x1="382.97503" y1="649.54409" x2="1663.74426" y2="1391.85178" gradientUnits="userSpaceOnUse"><stop offset="0" stop-color="#282c87" stop-opacity=".7"/><stop offset=".99848" stop-color="#282c87"/></linearGradient><linearGradient id="linear-gradient-2" x1="381.95262" y1="651.30814" x2="1662.72185" y2="1393.61583" xlink:href="#linear-gradient"/></defs><g><ellipse id="dot" class="cls-2" cx="384" cy="656" rx="128" ry="112"/><g id="main"><ellipse class="cls-1" cx="1664" cy="1392" rx="128" ry="112"/><path class="cls-4" d="M1664,1184c96,0,128-128,128-384,0-176-48-256-192-256-64,0-128,16-192,65-63,48-608,543-768,543-96,0-112-80-128-160s-64-128-128-128c-80,0-128,64-128,384,0,208,80,256,192,256,64,0,128-16,192-65,58-45,481-478,737-575,127-48,143,128,159,208,16,80,64,112,128,112Z"/></g></g><g><path class="cls-3" d="M2194.2809,772.76245c0-32.77121,27.73434-56.30185,58.81398-56.30185,31.09226,0,58.8266,23.53064,58.8266,56.30185,0,31.09226-26.88855,57.13502-58.8266,57.13502-31.92542,0-58.81398-26.04276-58.81398-57.13502Zm10.08636,152.09074c0-17.64798,11.76532-29.4133,29.40068-29.4133h39.49966c17.64798,0,29.4133,11.76532,29.4133,29.4133v377.27291c0,17.64798-11.76532,29.4133-29.4133,29.4133h-39.49966c-17.63536,0-29.40068-11.76532-29.40068-29.4133v-377.27291Z"/><path class="cls-3" d="M2429.95338,1064.33283c0-117.64057,78.14091-179.81246,173.9298-179.81246,94.95573,0,172.26347,62.17189,172.26347,179.81246v237.79327c0,17.64798-11.76532,29.4133-29.4133,29.4133h-39.48704c-17.64798,0-29.4133-11.76532-29.4133-29.4133v-233.58957c0-65.54243-29.4133-99.15943-73.94983-99.15943-45.3697,0-76.46196,33.617-76.46196,99.15943v233.58957c0,17.64798-11.76532,29.4133-29.4133,29.4133h-38.64125c-17.64798,0-29.4133-11.76532-29.4133-29.4133v-237.79327Z"/><path class="cls-3" d="M2892.49961,1067.69074c0-124.3564,81.49882-183.17038,169.7261-183.17038,32.77121,0,65.54243,12.59849,85.71515,25.19697v-163.84344c0-17.64798,11.7527-29.4133,29.40068-29.4133h40.33283c17.64798,0,29.4133,11.76532,29.4133,29.4133v414.24782c0,115.96162-82.34462,182.33721-177.30034,182.33721-95.78889,0-177.28772-66.37559-177.28772-182.33721v-92.43098Zm177.28772,189.89883c44.53653,0,78.15354-32.77121,78.15354-101.67155v-163.84344c-25.2096-13.44428-51.26498-22.69747-77.30775-22.69747-44.53653,0-80.66566,26.88855-80.66566,102.51734v84.02357c0,68.90034,35.28334,101.67155,79.81987,101.67155Z"/><path class="cls-3" d="M3367.88417,924.8532c0-17.64798,11.76532-29.4133,29.4133-29.4133h38.65387c17.64798,0,29.4133,11.76532,29.4133,29.4133v233.58957c0,65.54243,30.24647,99.1468,75.61617,99.1468,44.53653,0,74.783-33.60438,74.783-99.1468v-233.58957c0-17.64798,11.76532-29.4133,29.4133-29.4133h39.48704c17.64798,0,29.4133,11.76532,29.4133,29.4133v237.79327c0,117.62795-78.9867,179.81246-173.09664,179.81246-95.78889,0-173.09664-62.18451-173.09664-179.81246v-237.79327Z"/><path class="cls-3" d="M3825.81011,1264.31802c4.2037-16.80219,18.48115-23.53064,36.12913-18.49377,20.17273,5.04949,49.5734,11.76532,84.02357,11.76532,37.82071,0,64.70926-19.32694,64.70926-45.3697,0-80.66566-186.54091-50.41919-186.54091-200.83098,0-73.09142,58.81398-126.86852,153.7697-126.86852,37.80808,0,67.22138,5.87004,87.38148,11.7527,15.12323,4.2037,26.05539,18.49377,21.00589,36.14175l-6.71583,26.04276c-5.04949,18.48115-18.49377,25.2096-36.12913,20.17273-15.13586-4.2037-38.65387-9.2532-65.54243-9.2532-38.65387,0-52.94394,18.49377-52.94394,42.01179,0,75.62879,185.70775,43.70337,185.70775,199.15202,0,66.37559-52.94394,131.91802-164.70185,131.91802-45.3697,0-84.86936-9.24057-104.18367-15.12323-15.96902-5.03687-26.88855-17.64798-21.85168-36.97492l5.88266-26.04276Z"/><path class="cls-3" d="M4252.30296,963.49444h-32.77121c-14.29007,0-22.68485-5.88266-26.88855-21.83906l-5.88266-21.85168c-4.2037-14.27744,3.35791-24.36381,17.64798-24.36381h47.89445v-91.58519c0-17.64798,10.08636-31.09226,29.40068-33.617l34.46279-5.88266c21.00589-3.35791,35.28334,6.72845,35.28334,24.36381v106.72104h53.77711c14.29007,0,23.53064,9.24057,23.53064,23.53064v21.00589c0,14.27744-9.24057,23.51802-23.53064,23.51802h-53.77711v338.63166c0,17.64798-11.76532,29.4133-29.4133,29.4133h-40.33283c-17.63536,0-29.40068-11.76532-29.40068-29.4133v-338.63166Z"/><path class="cls-3" d="M4513.68999,1050.04276c0-99.99259,74.783-165.5224,171.41768-165.5224,11.76532,0,25.2096,.83317,37.80808,3.35791,15.96902,2.51212,32.77121,13.44428,26.88855,36.97492l-5.03687,23.51802c-3.37054,15.96902-15.13586,26.88855-36.14175,22.68485-5.88266-.83317-14.27744-1.67896-22.68485-1.67896-45.3697,0-74.783,32.77121-74.783,80.66566v252.08334c0,17.64798-11.76532,29.4133-29.4133,29.4133h-38.64125c-17.64798,0-29.4133-11.76532-29.4133-29.4133v-252.08334Z"/><path class="cls-3" d="M4839.52118,772.76245c0-32.77121,27.73434-56.30185,58.8266-56.30185s58.81398,23.53064,58.81398,56.30185c0,31.09226-26.88855,57.13502-58.81398,57.13502-31.93805,0-58.8266-26.04276-58.8266-57.13502Zm10.08636,152.09074c0-17.64798,11.76532-29.4133,29.4133-29.4133h39.48704c17.64798,0,29.4133,11.76532,29.4133,29.4133v377.27291c0,17.64798-11.76532,29.4133-29.4133,29.4133h-39.48704c-17.64798,0-29.4133-11.76532-29.4133-29.4133v-377.27291Z"/><path class="cls-3" d="M5106.37429,963.49444h-33.617c-14.27744,0-24.36381-9.24057-24.36381-23.51802v-21.00589c0-14.29007,10.08636-23.53064,24.36381-23.53064h33.617v-55.45606c0-89.07307,72.25825-134.44276,143.68334-134.44276,20.1601,0,37.80808,2.51212,50.41919,5.03687,19.32694,5.03687,25.2096,17.64798,21.00589,34.45017l-5.88266,26.88855c-5.04949,19.32694-17.64798,24.36381-34.45017,21.00589-6.72845-1.67896-15.12323-2.51212-25.2096-2.51212-31.92542,0-52.09815,18.48115-52.09815,49.5734v55.45606h74.783c15.96902,0,23.53064,11.76532,19.32694,26.88855l-5.03687,17.64798c-4.2037,17.63536-10.93215,23.51802-28.56751,23.51802h-60.50556v338.63166c0,17.64798-11.76532,29.4133-29.4133,29.4133h-38.65387c-17.63536,0-29.40068-11.76532-29.40068-29.4133v-338.63166Z"/><path class="cls-3" d="M5409.84884,1223.1394c31.09226,0,58.8266,25.2096,58.8266,58.8266,0,32.77121-26.88855,60.49293-58.8266,60.49293-32.75859,0-59.64714-27.72172-59.64714-60.49293,0-33.617,27.72172-58.8266,59.64714-58.8266Z"/><path class="cls-2" d="M5732.92806,1062.65387h68.90034v-15.96902c0-49.5734-24.37643-77.30775-68.90034-77.30775-33.617,0-68.06717,7.56162-89.91886,12.61111-17.63536,5.03687-31.07963-3.35791-35.28334-21.00589l-5.88266-21.00589c-5.04949-18.49377,4.2037-32.77121,21.00589-37.82071,16.80219-5.03687,63.01768-17.63536,110.07896-17.63536,100.82576,0,168.04714,63.01768,168.04714,162.16448v150.41179c0,83.17778-76.46196,145.36229-166.36819,145.36229-94.10993,0-166.38081-63.01768-166.38081-145.36229,0-89.07307,67.22138-134.44276,164.70185-134.44276Zm1.67896,194.9357c42.01179,0,67.22138-30.24647,67.22138-60.49293v-62.18451h-69.74613c-47.04866,0-63.86347,28.56751-63.86347,60.50556,0,31.07963,21.85168,62.17189,66.38822,62.17189Z"/><path class="cls-2" d="M6010.27149,772.76245c0-32.77121,27.73434-56.30185,58.8266-56.30185s58.81398,23.53064,58.81398,56.30185c0,31.09226-26.88855,57.13502-58.81398,57.13502-31.93805,0-58.8266-26.04276-58.8266-57.13502Zm10.08636,152.09074c0-17.64798,11.76532-29.4133,29.4133-29.4133h39.48704c17.64798,0,29.4133,11.76532,29.4133,29.4133v377.27291c0,17.64798-11.76532,29.4133-29.4133,29.4133h-39.48704c-17.64798,0-29.4133-11.76532-29.4133-29.4133v-377.27291Z"/></g></svg>